# xmcd
#
# Track frame offsets: 
#        150
#        23872
#        45240
#        65635
#        83937
#        98867
#        120545
#        141715
#        159442
#        179860
#        200902
#        222465
#        243857
#        271060
#
# Disc length: 3898 seconds
#
# Revision: 2
# Processed by: cddbd v1.5.2PL0 Copyright (c) Steve Scherf et al.
# Submitted via: ExactAudioCopyFreeDBPlugin 1.0
#
DISCID=d30f380e
DTITLE=Various Artist - Malaco:  The Last Soul Company - A Thirty-Yea
DTITLE=r Retrospective [box set]
DYEAR=1999
DGENRE=Soul
TTITLE0=Bobby Blue Bland - You Gotta Hurt Before You Heal
TTITLE1=Shirley Brown and Bobby Womack - Ain't Nothin' Like the Lovin'
TTITLE1=We Got
TTITLE2=Johnnie Taylor - Still Crazy
TTITLE3=Bobby "Blue" Bland - Midnight Run
TTITLE4=Denise LaSalle - Wet Match
TTITLE5=Bobby Blue Bland - Take Off Your Shoes
TTITLE6=Dorothy Moore - If You Give Me Your Heart
TTITLE7=Latimore - I Need a Good Woman Bad
TTITLE8=Mike Griffin - Working is the Curse of the Drinking Classes
TTITLE9=The Beat Daddys - I'll Always Love You
TTITLE10=Dorothy Moore - Stay Close to Home
TTITLE11=Bobby "Blue" Bland - There's a Stranger in My House
TTITLE12=Poonanny - Poonanny Be Still
TTITLE13=Dorothy Moore and Z.Z. Hill - Please Don't Let Our Good Thing
TTITLE13=End
EXTD=
EXTT0=
EXTT1=
EXTT2=
EXTT3=
EXTT4=
EXTT5=
EXTT6=
EXTT7=
EXTT8=
EXTT9=
EXTT10=
EXTT11=
EXTT12=
EXTT13=
PLAYORDER=
